<svg width="44" height="37" viewBox="0 0 44 37" fill="none" xmlns="http://www.w3.org/2000/svg">
<path d="M1.74119 11.696C1.54919 11.696 1.34119 11.616 1.11719 11.456C0.541187 10.912 0.253187 10.224 0.253187 9.392C0.253187 8.4 0.669187 7.376 1.50119 6.32C2.36519 5.232 3.62919 4.368 5.29319 3.728C7.18119 2.992 9.22919 2.384 11.4372 1.904C13.6452 1.392 15.9012 1.024 18.2052 0.799998C20.5412 0.543998 22.7812 0.415998 24.9252 0.415998C25.7252 0.415998 26.5092 0.431998 27.2772 0.464C28.0452 0.495999 28.7812 0.543999 29.4852 0.607998C34.1892 1.056 37.7732 1.952 40.2372 3.296C42.7332 4.64 43.9812 6.048 43.9812 7.52C43.9812 8.128 43.7732 8.704 43.3572 9.248C43.1652 9.504 42.8772 9.76 42.4932 10.016C42.1412 10.24 41.8532 10.352 41.6292 10.352C41.4372 10.352 41.3412 10.256 41.3412 10.064C41.3412 9.84 41.5012 9.472 41.8212 8.96C42.2052 8.384 42.3972 7.856 42.3972 7.376C42.3972 6.448 41.8052 5.728 40.6212 5.216C39.4692 4.672 37.9492 4.304 36.0612 4.112C34.2052 3.888 32.2052 3.776 30.0612 3.776C28.5892 3.776 27.1012 3.824 25.5972 3.92C24.0932 3.984 22.6852 4.08 21.3732 4.208C20.7652 4.272 19.8372 4.384 18.5892 4.544C17.3732 4.704 15.9972 4.912 14.4612 5.168C12.9252 5.392 11.3732 5.68 9.80519 6.032C8.23719 6.352 6.79719 6.72 5.48519 7.136C4.17319 7.552 3.10119 8.016 2.26919 8.528C1.46919 9.008 1.06919 9.552 1.06919 10.16C1.06919 10.576 1.30919 11.008 1.78919 11.456C1.85319 11.52 1.88519 11.568 1.88519 11.6C1.88519 11.664 1.83719 11.696 1.74119 11.696ZM14.9412 35.888C13.2772 35.76 12.1412 35.232 11.5332 34.304C10.9252 33.376 10.6212 32.288 10.6212 31.04C10.6212 29.984 10.7652 28.896 11.0532 27.776C11.3412 26.656 11.6452 25.632 11.9652 24.704C12.2852 23.808 12.7012 22.864 13.2132 21.872C13.7572 20.88 14.4772 19.696 15.3732 18.32C16.3012 16.944 17.5012 15.216 18.9732 13.136C20.4452 11.056 22.2692 8.48 24.4452 5.408C24.8292 4.928 25.1652 4.688 25.4532 4.688C25.6452 4.688 25.7732 4.768 25.8372 4.928C25.9332 5.056 25.9492 5.184 25.8852 5.312C22.8772 9.76 20.5572 13.584 18.9252 16.784C17.3252 19.952 16.1412 22.656 15.3732 24.896C15.2132 25.344 15.0052 25.984 14.7492 26.816C14.5252 27.616 14.3172 28.496 14.1252 29.456C13.9332 30.384 13.8372 31.264 13.8372 32.096C13.8372 32.992 13.9972 33.76 14.3172 34.4C14.6372 35.04 15.1972 35.36 15.9972 35.36C16.4772 35.36 16.9252 35.2 17.3412 34.88C17.5012 34.784 17.5972 34.736 17.6292 34.736C17.6932 34.736 17.7252 34.768 17.7252 34.832C17.7252 34.928 17.6292 35.056 17.4372 35.216C16.8292 35.76 15.9972 35.984 14.9412 35.888Z" fill="#F59E0B"/>
</svg>
